<svg xmlns="http://www.w3.org/2000/svg" viewBox="0 0 680 720" fill="none">
<defs>
  <linearGradient id="lg" x1="170" y1="0" x2="510" y2="0" gradientUnits="userSpaceOnUse">
    <stop offset="0%" stop-color="#4ABFA3"/>
    <stop offset="50%" stop-color="#6B8FD8"/>
    <stop offset="100%" stop-color="#7B38D8"/>
  </linearGradient>
</defs>

<!-- Dots around brain -->
<circle cx="340" cy="18" r="5" fill="#4ABFA3" opacity="0.55"/>
<circle cx="312" cy="24" r="3.5" fill="#4ABFA3" opacity="0.35"/>
<circle cx="368" cy="24" r="3.5" fill="#7B38D8" opacity="0.35"/>
<circle cx="192" cy="68" r="6" fill="#4ABFA3" opacity="0.45"/>
<circle cx="172" cy="88" r="3.5" fill="#4ABFA3" opacity="0.28"/>
<circle cx="488" cy="68" r="6" fill="#7B38D8" opacity="0.45"/>
<circle cx="508" cy="92" r="3.5" fill="#7B38D8" opacity="0.28"/>
<circle cx="162" cy="196" r="5" fill="#4ABFA3" opacity="0.38"/>
<circle cx="148" cy="216" r="3" fill="#4ABFA3" opacity="0.22"/>
<circle cx="518" cy="196" r="5" fill="#7B38D8" opacity="0.38"/>
<circle cx="532" cy="218" r="3" fill="#7B38D8" opacity="0.22"/>
<circle cx="198" cy="322" r="5.5" fill="#4ABFA3" opacity="0.4"/>
<circle cx="180" cy="342" r="3" fill="#4ABFA3" opacity="0.22"/>
<circle cx="482" cy="322" r="5.5" fill="#7B38D8" opacity="0.4"/>
<circle cx="500" cy="344" r="3" fill="#7B38D8" opacity="0.22"/>

<!-- Logo: scaled 2.7x centered -->
<g transform="translate(170,20) scale(2.7)" fill="url(#lg)">
  <path d="M103.164 17.8204C109.904 22.3504 115.014 31.6704 115.154 39.8304C115.204 42.3704 113.884 47.3604 114.504 49.4504C114.694 50.1104 118.154 53.4704 118.884 54.4204C127.314 65.2404 128.274 79.7204 117.834 89.6204C117.234 90.1904 116.234 90.5104 115.684 91.0604C113.744 93.0204 113.884 98.9704 113.104 101.79C110.694 110.52 101.854 117.55 92.9337 118.67C91.0437 118.91 87.0137 118.26 85.8137 119.46C83.4337 121.86 89.7037 128.54 84.6937 131.65C78.5737 135.45 75.4337 125.53 73.8637 121.38C72.8637 118.72 70.6937 113.32 70.9437 110.71C71.7037 102.6 79.8037 106.83 84.7637 107.24C88.2937 107.53 93.8537 107.24 96.6837 104.97C99.8837 102.39 102.174 97.9404 102.554 93.7604C102.854 90.5104 101.374 85.7904 104.374 83.7104C107.014 81.8804 108.034 82.2104 110.044 78.9504C114.374 71.8904 112.024 63.1604 105.404 58.5504C103.964 57.5504 100.704 56.4004 100.204 54.7604C99.2637 51.7004 101.494 48.7404 102.104 45.8304C103.994 36.8104 99.1937 27.1504 89.4337 26.3304C86.3437 26.0704 81.2437 26.9204 78.5637 26.0504C76.4237 25.3604 75.1337 21.1404 73.5837 19.1604C67.7037 11.6904 57.6137 10.9804 51.7037 18.8004C49.9437 21.1304 48.8337 25.9404 45.5637 26.3304C39.4637 27.0504 34.3637 24.7304 28.8637 29.0504C22.5337 34.0304 22.2237 41.3004 23.8937 48.7004C24.3237 50.5904 25.6737 51.7704 25.0637 54.0204C24.4937 56.1504 20.5637 57.9304 18.7537 59.5804C12.4437 65.3304 11.0037 75.0204 17.4437 81.2204C19.9837 83.6704 24.2437 83.9604 25.7337 87.1404C26.7437 89.3004 26.0637 90.9004 26.3137 93.0304C27.5637 103.59 37.2337 108.93 46.5637 102.86C49.7437 100.79 52.2237 95.5504 56.3437 98.9604C63.8037 105.13 52.1037 114.69 46.0937 116.42C34.0237 119.89 20.9837 114.9 15.8137 103.17C14.7537 100.77 14.0837 95.4904 13.3237 94.1504C12.7637 93.1604 8.55367 90.3704 7.41367 89.2704C-1.73633 80.3604 -2.18633 66.8204 4.79367 56.4204C6.64367 53.6604 10.9237 50.4604 10.8737 47.3604C10.7637 41.1104 9.76367 37.1904 12.0037 30.9004C15.1137 22.1704 22.1037 16.0004 31.2737 14.2004C33.5337 13.7604 37.3337 13.9004 39.1737 13.1104C40.1637 12.6804 43.2037 8.48042 44.2837 7.43042C54.3937 -2.30958 69.3737 -2.33958 80.0737 6.55042C81.5737 7.80042 85.4637 12.6804 86.4737 13.1004C88.6337 14.0004 92.9037 13.8304 95.7337 14.6304C97.7337 15.1904 101.474 16.6804 103.164 17.8104V17.8204Z"/>
  <path d="M52.5932 60.8604C51.2932 61.7204 50.0232 77.1104 49.2332 79.9804C48.6232 82.1904 47.6032 84.4204 45.1232 84.8604C40.9132 85.6004 35.8132 84.5904 36.0332 79.3804C36.3032 73.2104 38.6932 65.0204 39.8832 58.7604C41.0732 52.5004 41.3132 45.9904 43.5732 40.1504C44.7532 37.1104 46.7232 36.5004 49.8632 36.3804C55.8632 36.1404 57.6432 38.8504 59.4732 44.0604C60.0232 45.6304 61.6132 53.6704 63.5432 53.6704C64.2232 53.6704 64.5832 52.9704 64.8732 52.4704C68.0732 46.9704 67.1032 37.0304 75.4132 36.4004C82.6832 35.8504 83.2932 38.5204 84.8332 44.5904C86.9332 52.8404 88.8732 63.7804 90.2432 72.2704C90.6032 74.4704 91.3132 78.7004 90.9632 80.7304C90.0232 86.2304 80.3632 86.8404 78.3532 81.6404C76.2232 76.1304 76.9032 68.3604 75.0532 62.6404C74.6632 61.4204 74.0032 60.0104 72.9032 61.5904L66.4032 74.8704C65.2932 76.0304 63.5532 76.2904 62.1332 75.5404C60.5032 74.6904 56.6632 65.8104 55.3632 63.6104C54.9232 62.8604 53.5132 60.2404 52.5732 60.8604H52.5932Z"/>
</g>

<!-- Top accent sparkles -->
<path d="M148 158 L154 178 L160 158 L154 138 Z M134 158 L154 164 L174 158 L154 152 Z" fill="#7B6FD4"/>
<path d="M118 305 L122 315 L126 305 L122 295 Z M110 305 L122 309 L134 305 L122 301 Z" fill="#7B6FD4"/>
<path d="M548 215 L552 225 L556 215 L552 205 Z M540 215 L552 219 L564 215 L552 211 Z" fill="#4ABFA3"/>
<path d="M558 548 L562 562 L566 548 L562 534 Z M544 548 L562 554 L580 548 L562 542 Z" fill="#D9A020"/>

<!-- Trunk -->
<path d="M340 358 C340 378 340 408 340 442" stroke="#4ABFA3" stroke-width="9" fill="none" stroke-linecap="round" opacity="0.25"/>
<path d="M340 358 C340 378 340 408 340 442" stroke="#5A8FD0" stroke-width="6" fill="none" stroke-linecap="round"/>
<path d="M337 358 C337 378 337 408 337 442" stroke="rgba(255,255,255,0.18)" stroke-width="2" fill="none" stroke-linecap="round"/>
<path d="M343 362 C343 382 343 412 343 442" stroke="rgba(0,0,0,0.18)" stroke-width="2" fill="none" stroke-linecap="round"/>

<!-- Main branches -->
<g opacity="0.9">
  <path d="M340 442 C340 478 252 488 252 520" stroke="#4ABFA3" stroke-width="6" fill="none" stroke-linecap="round"/>
  <path d="M340 442 C340 478 252 488 252 520" stroke="rgba(255,255,255,0.16)" stroke-width="2" fill="none" stroke-linecap="round"/>
  <path d="M341 442 C341 480 254 490 254 520" stroke="rgba(0,0,0,0.16)" stroke-width="2" fill="none" stroke-linecap="round"/>
  <path d="M340 442 C340 478 428 488 428 520" stroke="#7B38D8" stroke-width="6" fill="none" stroke-linecap="round"/>
  <path d="M340 442 C340 478 428 488 428 520" stroke="rgba(255,255,255,0.16)" stroke-width="2" fill="none" stroke-linecap="round"/>
  <path d="M339 442 C339 480 426 490 426 520" stroke="rgba(0,0,0,0.16)" stroke-width="2" fill="none" stroke-linecap="round"/>
</g>

<!-- Secondary branches -->
<g opacity="0.65">
  <path d="M252 520 C252 552 168 562 168 594" stroke="#4ABFA3" stroke-width="4.5" fill="none" stroke-linecap="round"/>
  <path d="M252 520 C252 552 168 562 168 594" stroke="rgba(255,255,255,0.14)" stroke-width="1.5" fill="none" stroke-linecap="round"/>
  <path d="M252 520 C252 554 246 566 246 594" stroke="#4ABFA3" stroke-width="4.5" fill="none" stroke-linecap="round"/>
  <path d="M252 520 C252 554 246 566 246 594" stroke="rgba(255,255,255,0.14)" stroke-width="1.5" fill="none" stroke-linecap="round"/>
  <path d="M428 520 C428 552 512 562 512 594" stroke="#7B38D8" stroke-width="4.5" fill="none" stroke-linecap="round"/>
  <path d="M428 520 C428 552 512 562 512 594" stroke="rgba(255,255,255,0.14)" stroke-width="1.5" fill="none" stroke-linecap="round"/>
  <path d="M428 520 C428 554 434 566 434 594" stroke="#7B38D8" stroke-width="4.5" fill="none" stroke-linecap="round"/>
  <path d="M428 520 C428 554 434 566 434 594" stroke="rgba(255,255,255,0.14)" stroke-width="1.5" fill="none" stroke-linecap="round"/>
</g>

<!-- Tertiary branches fading -->
<g opacity="0.32">
  <path d="M168 594 C168 618 136 626 128 650" stroke="#4ABFA3" stroke-width="3.5" fill="none" stroke-linecap="round"/>
  <path d="M168 594 C168 618 136 626 128 650" stroke="rgba(255,255,255,0.12)" stroke-width="1.2" fill="none" stroke-linecap="round"/>
  <path d="M168 594 C170 620 178 628 182 652" stroke="#4ABFA3" stroke-width="3.5" fill="none" stroke-linecap="round"/>
  <path d="M246 594 C246 618 224 626 218 650" stroke="#4ABFA3" stroke-width="3.5" fill="none" stroke-linecap="round"/>
  <path d="M246 594 C248 620 264 628 268 652" stroke="#4ABFA3" stroke-width="3.5" fill="none" stroke-linecap="round"/>
  <path d="M512 594 C512 618 544 626 552 650" stroke="#7B38D8" stroke-width="3.5" fill="none" stroke-linecap="round"/>
  <path d="M512 594 C512 620 502 628 498 652" stroke="#7B38D8" stroke-width="3.5" fill="none" stroke-linecap="round"/>
  <path d="M434 594 C434 618 452 626 458 650" stroke="#7B38D8" stroke-width="3.5" fill="none" stroke-linecap="round"/>
  <path d="M434 594 C432 620 416 628 412 652" stroke="#7B38D8" stroke-width="3.5" fill="none" stroke-linecap="round"/>
</g>

<!-- Bottom sparkles — clear of all roots -->
<path d="M72 580 L78 598 L84 580 L78 562 Z M60 580 L78 586 L96 580 L78 574 Z" fill="#D9A020"/>
<path d="M56 652 L61 664 L66 652 L61 640 Z M48 652 L61 657 L74 652 L61 647 Z" fill="#7B6FD4"/>
<path d="M198 672 L202 681 L206 672 L202 663 Z M191 672 L202 676 L213 672 L202 668 Z" fill="#4ABFA3"/>
<path d="M476 672 L480 681 L484 672 L480 663 Z M469 672 L480 676 L491 672 L480 668 Z" fill="#D9A020"/>
<path d="M596 580 L602 598 L608 580 L602 562 Z M584 580 L602 586 L620 580 L602 574 Z" fill="#4ABFA3"/>
<path d="M614 652 L619 664 L624 652 L619 640 Z M606 652 L619 657 L632 652 L619 647 Z" fill="#7B6FD4"/>
</svg>
