<?xml version="1.0" standalone="no"?>
<!DOCTYPE svg PUBLIC "-//W3C//DTD SVG 1.1//EN" "http://www.w3.org/Graphics/SVG/1.1/DTD/svg11.dtd">
<svg xmlns="http://www.w3.org/2000/svg" width="126" height="133" viewBox="0 0 126 133" fill="none">
<path d="M103.164 17.8204C109.904 22.3504 115.014 31.6704 115.154 39.8304C115.204 42.3704 113.884 47.3604 114.504 49.4504C114.694 50.1104 118.154 53.4704 118.884 54.4204C127.314 65.2404 128.274 79.7204 117.834 89.6204C117.234 90.1904 116.234 90.5104 115.684 91.0604C113.744 93.0204 113.884 98.9704 113.104 101.79C110.694 110.52 101.854 117.55 92.9337 118.67C91.0437 118.91 87.0137 118.26 85.8137 119.46C83.4337 121.86 89.7037 128.54 84.6937 131.65C78.5737 135.45 75.4337 125.53 73.8637 121.38C72.8637 118.72 70.6937 113.32 70.9437 110.71C71.7037 102.6 79.8037 106.83 84.7637 107.24C88.2937 107.53 93.8537 107.24 96.6837 104.97C99.8837 102.39 102.174 97.9404 102.554 93.7604C102.854 90.5104 101.374 85.7904 104.374 83.7104C107.014 81.8804 108.034 82.2104 110.044 78.9504C114.374 71.8904 112.024 63.1604 105.404 58.5504C103.964 57.5504 100.704 56.4004 100.204 54.7604C99.2637 51.7004 101.494 48.7404 102.104 45.8304C103.994 36.8104 99.1937 27.1504 89.4337 26.3304C86.3437 26.0704 81.2437 26.9204 78.5637 26.0504C76.4237 25.3604 75.1337 21.1404 73.5837 19.1604C67.7037 11.6904 57.6137 10.9804 51.7037 18.8004C49.9437 21.1304 48.8337 25.9404 45.5637 26.3304C39.4637 27.0504 34.3637 24.7304 28.8637 29.0504C22.5337 34.0304 22.2237 41.3004 23.8937 48.7004C24.3237 50.5904 25.6737 51.7704 25.0637 54.0204C24.4937 56.1504 20.5637 57.9304 18.7537 59.5804C12.4437 65.3304 11.0037 75.0204 17.4437 81.2204C19.9837 83.6704 24.2437 83.9604 25.7337 87.1404C26.7437 89.3004 26.0637 90.9004 26.3137 93.0304C27.5637 103.59 37.2337 108.93 46.5637 102.86C49.7437 100.79 52.2237 95.5504 56.3437 98.9604C63.8037 105.13 52.1037 114.69 46.0937 116.42C34.0237 119.89 20.9837 114.9 15.8137 103.17C14.7537 100.77 14.0837 95.4904 13.3237 94.1504C12.7637 93.1604 8.55367 90.3704 7.41367 89.2704C-1.73633 80.3604 -2.18633 66.8204 4.79367 56.4204C6.64367 53.6604 10.9237 50.4604 10.8737 47.3604C10.7637 41.1104 9.76367 37.1904 12.0037 30.9004C15.1137 22.1704 22.1037 16.0004 31.2737 14.2004C33.5337 13.7604 37.3337 13.9004 39.1737 13.1104C40.1637 12.6804 43.2037 8.48042 44.2837 7.43042C54.3937 -2.30958 69.3737 -2.33958 80.0737 6.55042C81.5737 7.80042 85.4637 12.6804 86.4737 13.1004C88.6337 14.0004 92.9037 13.8304 95.7337 14.6304C97.7337 15.1904 101.474 16.6804 103.164 17.8104V17.8204Z" fill="#0E273F"/>
<path d="M52.5932 60.8604C51.2932 61.7204 50.0232 77.1104 49.2332 79.9804C48.6232 82.1904 47.6032 84.4204 45.1232 84.8604C40.9132 85.6004 35.8132 84.5904 36.0332 79.3804C36.3032 73.2104 38.6932 65.0204 39.8832 58.7604C41.0732 52.5004 41.3132 45.9904 43.5732 40.1504C44.7532 37.1104 46.7232 36.5004 49.8632 36.3804C55.8632 36.1404 57.6432 38.8504 59.4732 44.0604C60.0232 45.6304 61.6132 53.6704 63.5432 53.6704C64.2232 53.6704 64.5832 52.9704 64.8732 52.4704C68.0732 46.9704 67.1032 37.0304 75.4132 36.4004C82.6832 35.8504 83.2932 38.5204 84.8332 44.5904C86.9332 52.8404 88.8732 63.7804 90.2432 72.2704C90.6032 74.4704 91.3132 78.7004 90.9632 80.7304C90.0232 86.2304 80.3632 86.8404 78.3532 81.6404C76.2232 76.1304 76.9032 68.3604 75.0532 62.6404C74.6632 61.4204 74.0032 60.0104 72.9032 61.5904L66.4032 74.8704C65.2932 76.0304 63.5532 76.2904 62.1332 75.5404C60.5032 74.6904 56.6632 65.8104 55.3632 63.6104C54.9232 62.8604 53.5132 60.2404 52.5732 60.8604H52.5932Z" fill="#0E273F"/>
</svg>